<mxfile host="app.diagrams.net" modified="2023-05-06T14:18:49.987Z" agent="Mozilla/5.0 (X11; Linux x86_64) AppleWebKit/537.36 (KHTML, like Gecko) Chrome/112.0.0.0 Safari/537.36" etag="Z8MDmmD4C5UJQNHDz5lE" version="21.2.9" type="device">
  <diagram name="Page-1" id="1vKoO-0sNJ_RiJCUVH1j">
    <mxGraphModel dx="1434" dy="1875" grid="1" gridSize="10" guides="1" tooltips="1" connect="1" arrows="1" fold="1" page="1" pageScale="1" pageWidth="850" pageHeight="1100" math="0" shadow="0">
      <root>
        <mxCell id="0" />
        <mxCell id="1" parent="0" />
        <mxCell id="UCss4geg_edF1j3ZXJpk-1" style="edgeStyle=orthogonalEdgeStyle;rounded=0;orthogonalLoop=1;jettySize=auto;html=1;" parent="1" source="UCss4geg_edF1j3ZXJpk-10" target="UCss4geg_edF1j3ZXJpk-16" edge="1">
          <mxGeometry relative="1" as="geometry">
            <Array as="points">
              <mxPoint x="482.5" y="-1040" />
              <mxPoint x="482.5" y="-1040" />
            </Array>
          </mxGeometry>
        </mxCell>
        <mxCell id="UCss4geg_edF1j3ZXJpk-2" value="&lt;font style=&quot;font-size: 14px;&quot;&gt;1&lt;/font&gt;" style="edgeLabel;html=1;align=center;verticalAlign=middle;resizable=0;points=[];" parent="UCss4geg_edF1j3ZXJpk-1" vertex="1" connectable="0">
          <mxGeometry x="0.2231" y="1" relative="1" as="geometry">
            <mxPoint x="-21" y="-9" as="offset" />
          </mxGeometry>
        </mxCell>
        <mxCell id="UCss4geg_edF1j3ZXJpk-3" style="edgeStyle=orthogonalEdgeStyle;rounded=0;orthogonalLoop=1;jettySize=auto;html=1;entryX=0.5;entryY=0;entryDx=0;entryDy=0;" parent="1" source="UCss4geg_edF1j3ZXJpk-10" target="UCss4geg_edF1j3ZXJpk-36" edge="1">
          <mxGeometry relative="1" as="geometry">
            <Array as="points">
              <mxPoint x="62.5" y="-1040" />
            </Array>
          </mxGeometry>
        </mxCell>
        <mxCell id="UCss4geg_edF1j3ZXJpk-4" value="&lt;font style=&quot;font-size: 14px;&quot;&gt;4&lt;/font&gt;" style="edgeLabel;html=1;align=center;verticalAlign=middle;resizable=0;points=[];" parent="UCss4geg_edF1j3ZXJpk-3" vertex="1" connectable="0">
          <mxGeometry x="0.7757" y="5" relative="1" as="geometry">
            <mxPoint x="-12" as="offset" />
          </mxGeometry>
        </mxCell>
        <mxCell id="UCss4geg_edF1j3ZXJpk-48" style="edgeStyle=orthogonalEdgeStyle;rounded=0;orthogonalLoop=1;jettySize=auto;html=1;" parent="1" source="UCss4geg_edF1j3ZXJpk-10" target="UCss4geg_edF1j3ZXJpk-31" edge="1">
          <mxGeometry relative="1" as="geometry">
            <Array as="points">
              <mxPoint x="217.5" y="-1031" />
            </Array>
          </mxGeometry>
        </mxCell>
        <mxCell id="UCss4geg_edF1j3ZXJpk-49" value="&lt;font style=&quot;font-size: 14px;&quot;&gt;3&lt;/font&gt;" style="edgeLabel;html=1;align=center;verticalAlign=middle;resizable=0;points=[];" parent="UCss4geg_edF1j3ZXJpk-48" vertex="1" connectable="0">
          <mxGeometry x="0.6229" relative="1" as="geometry">
            <mxPoint as="offset" />
          </mxGeometry>
        </mxCell>
        <mxCell id="UCss4geg_edF1j3ZXJpk-51" style="edgeStyle=orthogonalEdgeStyle;rounded=0;orthogonalLoop=1;jettySize=auto;html=1;entryX=0.092;entryY=0.202;entryDx=0;entryDy=0;entryPerimeter=0;" parent="1" source="UCss4geg_edF1j3ZXJpk-10" target="UCss4geg_edF1j3ZXJpk-26" edge="1">
          <mxGeometry relative="1" as="geometry">
            <mxPoint x="320.5" y="-900" as="targetPoint" />
          </mxGeometry>
        </mxCell>
        <mxCell id="UCss4geg_edF1j3ZXJpk-52" value="&lt;font style=&quot;font-size: 14px;&quot;&gt;2&lt;/font&gt;" style="edgeLabel;html=1;align=center;verticalAlign=middle;resizable=0;points=[];" parent="UCss4geg_edF1j3ZXJpk-51" vertex="1" connectable="0">
          <mxGeometry x="0.1312" y="2" relative="1" as="geometry">
            <mxPoint as="offset" />
          </mxGeometry>
        </mxCell>
        <mxCell id="UCss4geg_edF1j3ZXJpk-53" style="edgeStyle=orthogonalEdgeStyle;rounded=0;orthogonalLoop=1;jettySize=auto;html=1;entryX=0.096;entryY=0.201;entryDx=0;entryDy=0;entryPerimeter=0;" parent="1" source="UCss4geg_edF1j3ZXJpk-10" target="UCss4geg_edF1j3ZXJpk-21" edge="1">
          <mxGeometry relative="1" as="geometry">
            <Array as="points">
              <mxPoint x="347.5" y="-970" />
              <mxPoint x="490.5" y="-970" />
            </Array>
          </mxGeometry>
        </mxCell>
        <mxCell id="UCss4geg_edF1j3ZXJpk-54" value="&lt;font style=&quot;font-size: 14px;&quot;&gt;2&lt;/font&gt;" style="edgeLabel;html=1;align=center;verticalAlign=middle;resizable=0;points=[];" parent="UCss4geg_edF1j3ZXJpk-53" vertex="1" connectable="0">
          <mxGeometry x="-0.0218" y="3" relative="1" as="geometry">
            <mxPoint x="47" y="23" as="offset" />
          </mxGeometry>
        </mxCell>
        <mxCell id="UCss4geg_edF1j3ZXJpk-57" style="edgeStyle=orthogonalEdgeStyle;rounded=0;orthogonalLoop=1;jettySize=auto;html=1;entryX=0;entryY=0;entryDx=0;entryDy=0;" parent="1" source="UCss4geg_edF1j3ZXJpk-10" target="UCss4geg_edF1j3ZXJpk-43" edge="1">
          <mxGeometry relative="1" as="geometry">
            <Array as="points">
              <mxPoint x="644.5" y="-990" />
            </Array>
          </mxGeometry>
        </mxCell>
        <mxCell id="UCss4geg_edF1j3ZXJpk-58" value="&lt;font style=&quot;font-size: 14px;&quot;&gt;5&lt;/font&gt;" style="edgeLabel;html=1;align=center;verticalAlign=middle;resizable=0;points=[];" parent="UCss4geg_edF1j3ZXJpk-57" vertex="1" connectable="0">
          <mxGeometry x="0.2644" y="-3" relative="1" as="geometry">
            <mxPoint x="53" y="27" as="offset" />
          </mxGeometry>
        </mxCell>
        <mxCell id="UCss4geg_edF1j3ZXJpk-10" value="" style="ellipse;whiteSpace=wrap;html=1;shadow=0;labelBackgroundColor=none;fillStyle=auto;fontFamily=Helvetica;fontSize=12;gradientDirection=north;" parent="1" vertex="1">
          <mxGeometry x="230.14" y="-1080" width="182.36" height="98.79" as="geometry" />
        </mxCell>
        <mxCell id="UCss4geg_edF1j3ZXJpk-11" value="ClientHeistToTheMuseum&lt;br&gt;OrdinaryThief[i],&amp;nbsp;&lt;br&gt;i = 0, ..., 5" style="ellipse;whiteSpace=wrap;html=1;shadow=0;labelBackgroundColor=none;fillStyle=auto;strokeColor=default;fontFamily=Helvetica;fontSize=12;fontColor=default;fillColor=#969696;gradientColor=none;gradientDirection=north;" parent="1" vertex="1">
          <mxGeometry x="240.14" y="-1070" width="162.36" height="79.42" as="geometry" />
        </mxCell>
        <mxCell id="UCss4geg_edF1j3ZXJpk-59" style="edgeStyle=orthogonalEdgeStyle;rounded=0;orthogonalLoop=1;jettySize=auto;html=1;entryX=1;entryY=0.5;entryDx=0;entryDy=0;" parent="1" source="UCss4geg_edF1j3ZXJpk-16" target="UCss4geg_edF1j3ZXJpk-43" edge="1">
          <mxGeometry relative="1" as="geometry">
            <Array as="points">
              <mxPoint x="767.5" y="-1030" />
              <mxPoint x="767.5" y="-891" />
            </Array>
          </mxGeometry>
        </mxCell>
        <mxCell id="UCss4geg_edF1j3ZXJpk-66" value="&lt;font style=&quot;font-size: 14px;&quot;&gt;9&lt;/font&gt;" style="edgeLabel;html=1;align=center;verticalAlign=middle;resizable=0;points=[];" parent="UCss4geg_edF1j3ZXJpk-59" vertex="1" connectable="0">
          <mxGeometry x="0.0682" y="4" relative="1" as="geometry">
            <mxPoint x="-11" y="34" as="offset" />
          </mxGeometry>
        </mxCell>
        <mxCell id="UCss4geg_edF1j3ZXJpk-60" style="edgeStyle=orthogonalEdgeStyle;rounded=0;orthogonalLoop=1;jettySize=auto;html=1;entryX=0.5;entryY=1;entryDx=0;entryDy=0;" parent="1" source="UCss4geg_edF1j3ZXJpk-16" target="UCss4geg_edF1j3ZXJpk-21" edge="1">
          <mxGeometry relative="1" as="geometry">
            <mxPoint x="558" y="-850" as="targetPoint" />
            <Array as="points">
              <mxPoint x="790" y="-1045" />
              <mxPoint x="790" y="-820" />
              <mxPoint x="545" y="-820" />
            </Array>
          </mxGeometry>
        </mxCell>
        <mxCell id="UCss4geg_edF1j3ZXJpk-61" value="&lt;font style=&quot;font-size: 14px;&quot;&gt;6&lt;/font&gt;" style="edgeLabel;html=1;align=center;verticalAlign=middle;resizable=0;points=[];" parent="UCss4geg_edF1j3ZXJpk-60" vertex="1" connectable="0">
          <mxGeometry x="0.3371" y="-1" relative="1" as="geometry">
            <mxPoint x="77" y="-189" as="offset" />
          </mxGeometry>
        </mxCell>
        <mxCell id="UCss4geg_edF1j3ZXJpk-62" style="edgeStyle=orthogonalEdgeStyle;rounded=0;orthogonalLoop=1;jettySize=auto;html=1;entryX=0.719;entryY=0.966;entryDx=0;entryDy=0;entryPerimeter=0;" parent="1" source="UCss4geg_edF1j3ZXJpk-16" target="UCss4geg_edF1j3ZXJpk-26" edge="1">
          <mxGeometry relative="1" as="geometry">
            <Array as="points">
              <mxPoint x="810" y="-1060" />
              <mxPoint x="810" y="-810" />
              <mxPoint x="416" y="-810" />
            </Array>
          </mxGeometry>
        </mxCell>
        <mxCell id="UCss4geg_edF1j3ZXJpk-63" value="&lt;font style=&quot;font-size: 14px;&quot;&gt;7&lt;/font&gt;" style="edgeLabel;html=1;align=center;verticalAlign=middle;resizable=0;points=[];" parent="UCss4geg_edF1j3ZXJpk-62" vertex="1" connectable="0">
          <mxGeometry x="-0.5339" y="1" relative="1" as="geometry">
            <mxPoint as="offset" />
          </mxGeometry>
        </mxCell>
        <mxCell id="UCss4geg_edF1j3ZXJpk-64" style="edgeStyle=orthogonalEdgeStyle;rounded=0;orthogonalLoop=1;jettySize=auto;html=1;entryX=1;entryY=1;entryDx=0;entryDy=0;" parent="1" source="UCss4geg_edF1j3ZXJpk-16" target="UCss4geg_edF1j3ZXJpk-31" edge="1">
          <mxGeometry relative="1" as="geometry">
            <Array as="points">
              <mxPoint x="830" y="-1070" />
              <mxPoint x="830" y="-790" />
              <mxPoint x="260" y="-790" />
            </Array>
          </mxGeometry>
        </mxCell>
        <mxCell id="UCss4geg_edF1j3ZXJpk-65" value="&lt;font style=&quot;font-size: 14px;&quot;&gt;8&lt;/font&gt;" style="edgeLabel;html=1;align=center;verticalAlign=middle;resizable=0;points=[];" parent="UCss4geg_edF1j3ZXJpk-64" vertex="1" connectable="0">
          <mxGeometry x="-0.6496" y="-3" relative="1" as="geometry">
            <mxPoint as="offset" />
          </mxGeometry>
        </mxCell>
        <mxCell id="UCss4geg_edF1j3ZXJpk-16" value="ordinaryThief[i],&lt;br&gt;i = 0, ..., 5" style="ellipse;whiteSpace=wrap;html=1;shadow=0;labelBackgroundColor=none;fillStyle=auto;strokeColor=default;fontFamily=Helvetica;fontSize=12;fontColor=default;fillColor=#969696;gradientColor=none;gradientDirection=north;" parent="1" vertex="1">
          <mxGeometry x="577.5" y="-1080" width="135" height="70" as="geometry" />
        </mxCell>
        <mxCell id="UCss4geg_edF1j3ZXJpk-73" style="rounded=0;orthogonalLoop=1;jettySize=auto;html=1;entryX=1;entryY=0;entryDx=0;entryDy=0;" parent="1" source="UCss4geg_edF1j3ZXJpk-21" target="UCss4geg_edF1j3ZXJpk-42" edge="1">
          <mxGeometry relative="1" as="geometry" />
        </mxCell>
        <mxCell id="UCss4geg_edF1j3ZXJpk-75" value="&lt;font style=&quot;font-size: 14px;&quot;&gt;10&lt;/font&gt;" style="edgeLabel;html=1;align=center;verticalAlign=middle;resizable=0;points=[];" parent="UCss4geg_edF1j3ZXJpk-73" vertex="1" connectable="0">
          <mxGeometry x="-0.2336" y="-3" relative="1" as="geometry">
            <mxPoint as="offset" />
          </mxGeometry>
        </mxCell>
        <mxCell id="UCss4geg_edF1j3ZXJpk-80" style="edgeStyle=orthogonalEdgeStyle;rounded=0;orthogonalLoop=1;jettySize=auto;html=1;entryX=1;entryY=0.5;entryDx=0;entryDy=0;" parent="1" source="UCss4geg_edF1j3ZXJpk-21" target="UCss4geg_edF1j3ZXJpk-39" edge="1">
          <mxGeometry relative="1" as="geometry">
            <Array as="points">
              <mxPoint x="520" y="-650" />
            </Array>
          </mxGeometry>
        </mxCell>
        <mxCell id="UCss4geg_edF1j3ZXJpk-81" value="&lt;font style=&quot;font-size: 14px;&quot;&gt;12&lt;/font&gt;" style="edgeLabel;html=1;align=center;verticalAlign=middle;resizable=0;points=[];" parent="UCss4geg_edF1j3ZXJpk-80" vertex="1" connectable="0">
          <mxGeometry x="0.1487" y="-4" relative="1" as="geometry">
            <mxPoint as="offset" />
          </mxGeometry>
        </mxCell>
        <mxCell id="UCss4geg_edF1j3ZXJpk-21" value="concentrationSiteStub" style="ellipse;whiteSpace=wrap;html=1;shadow=0;labelBackgroundColor=none;fillStyle=auto;fontFamily=Helvetica;fontSize=12;gradientDirection=north;" parent="1" vertex="1">
          <mxGeometry x="477.5" y="-922.16" width="135" height="65.63" as="geometry" />
        </mxCell>
        <mxCell id="UCss4geg_edF1j3ZXJpk-24" style="edgeStyle=orthogonalEdgeStyle;rounded=0;orthogonalLoop=1;jettySize=auto;html=1;entryX=0.688;entryY=0.05;entryDx=0;entryDy=0;entryPerimeter=0;" parent="1" source="UCss4geg_edF1j3ZXJpk-26" target="UCss4geg_edF1j3ZXJpk-39" edge="1">
          <mxGeometry relative="1" as="geometry" />
        </mxCell>
        <mxCell id="UCss4geg_edF1j3ZXJpk-25" value="&lt;font style=&quot;font-size: 14px;&quot;&gt;13&lt;/font&gt;" style="edgeLabel;html=1;align=center;verticalAlign=middle;resizable=0;points=[];" parent="UCss4geg_edF1j3ZXJpk-24" vertex="1" connectable="0">
          <mxGeometry x="0.2783" y="-3" relative="1" as="geometry">
            <mxPoint y="1" as="offset" />
          </mxGeometry>
        </mxCell>
        <mxCell id="UCss4geg_edF1j3ZXJpk-71" style="rounded=0;orthogonalLoop=1;jettySize=auto;html=1;entryX=0.5;entryY=0;entryDx=0;entryDy=0;" parent="1" source="UCss4geg_edF1j3ZXJpk-26" target="UCss4geg_edF1j3ZXJpk-42" edge="1">
          <mxGeometry relative="1" as="geometry" />
        </mxCell>
        <mxCell id="UCss4geg_edF1j3ZXJpk-72" value="&lt;font style=&quot;font-size: 14px;&quot;&gt;10&lt;/font&gt;" style="edgeLabel;html=1;align=center;verticalAlign=middle;resizable=0;points=[];" parent="UCss4geg_edF1j3ZXJpk-71" vertex="1" connectable="0">
          <mxGeometry x="0.2459" y="-3" relative="1" as="geometry">
            <mxPoint as="offset" />
          </mxGeometry>
        </mxCell>
        <mxCell id="UCss4geg_edF1j3ZXJpk-26" value="controlCollectionSiteStub" style="ellipse;whiteSpace=wrap;html=1;shadow=0;labelBackgroundColor=none;fillStyle=auto;fontFamily=Helvetica;fontSize=12;gradientDirection=north;" parent="1" vertex="1">
          <mxGeometry x="306.5" y="-919.9800000000001" width="152.36" height="69.37" as="geometry" />
        </mxCell>
        <mxCell id="UCss4geg_edF1j3ZXJpk-29" style="edgeStyle=orthogonalEdgeStyle;rounded=0;orthogonalLoop=1;jettySize=auto;html=1;entryX=0.5;entryY=0;entryDx=0;entryDy=0;" parent="1" source="UCss4geg_edF1j3ZXJpk-31" target="UCss4geg_edF1j3ZXJpk-39" edge="1">
          <mxGeometry relative="1" as="geometry">
            <Array as="points">
              <mxPoint x="230.5" y="-730" />
              <mxPoint x="395.5" y="-730" />
            </Array>
          </mxGeometry>
        </mxCell>
        <mxCell id="UCss4geg_edF1j3ZXJpk-30" value="&lt;font style=&quot;font-size: 14px;&quot;&gt;14&lt;/font&gt;" style="edgeLabel;html=1;align=center;verticalAlign=middle;resizable=0;points=[];" parent="UCss4geg_edF1j3ZXJpk-29" vertex="1" connectable="0">
          <mxGeometry x="0.395" relative="1" as="geometry">
            <mxPoint as="offset" />
          </mxGeometry>
        </mxCell>
        <mxCell id="UCss4geg_edF1j3ZXJpk-69" style="rounded=0;orthogonalLoop=1;jettySize=auto;html=1;entryX=0.333;entryY=0.017;entryDx=0;entryDy=0;entryPerimeter=0;" parent="1" source="UCss4geg_edF1j3ZXJpk-31" target="UCss4geg_edF1j3ZXJpk-42" edge="1">
          <mxGeometry relative="1" as="geometry" />
        </mxCell>
        <mxCell id="UCss4geg_edF1j3ZXJpk-70" value="&lt;font style=&quot;font-size: 14px;&quot;&gt;10&lt;/font&gt;" style="edgeLabel;html=1;align=center;verticalAlign=middle;resizable=0;points=[];" parent="UCss4geg_edF1j3ZXJpk-69" vertex="1" connectable="0">
          <mxGeometry x="0.1938" y="1" relative="1" as="geometry">
            <mxPoint as="offset" />
          </mxGeometry>
        </mxCell>
        <mxCell id="UCss4geg_edF1j3ZXJpk-31" value="assaultPartiesStub" style="ellipse;whiteSpace=wrap;html=1;shadow=0;labelBackgroundColor=none;fillStyle=auto;fontFamily=Helvetica;fontSize=12;gradientDirection=north;" parent="1" vertex="1">
          <mxGeometry x="157.5" y="-922.1699999999998" width="120" height="70" as="geometry" />
        </mxCell>
        <mxCell id="UCss4geg_edF1j3ZXJpk-34" style="edgeStyle=orthogonalEdgeStyle;rounded=0;orthogonalLoop=1;jettySize=auto;html=1;entryX=0;entryY=0.5;entryDx=0;entryDy=0;" parent="1" source="UCss4geg_edF1j3ZXJpk-36" target="UCss4geg_edF1j3ZXJpk-39" edge="1">
          <mxGeometry relative="1" as="geometry">
            <Array as="points">
              <mxPoint x="147.5" y="-880" />
              <mxPoint x="147.5" y="-650" />
            </Array>
          </mxGeometry>
        </mxCell>
        <mxCell id="UCss4geg_edF1j3ZXJpk-35" value="&lt;font style=&quot;font-size: 14px;&quot;&gt;16&lt;/font&gt;" style="edgeLabel;html=1;align=center;verticalAlign=middle;resizable=0;points=[];" parent="UCss4geg_edF1j3ZXJpk-34" vertex="1" connectable="0">
          <mxGeometry x="0.4256" y="3" relative="1" as="geometry">
            <mxPoint as="offset" />
          </mxGeometry>
        </mxCell>
        <mxCell id="UCss4geg_edF1j3ZXJpk-67" style="rounded=0;orthogonalLoop=1;jettySize=auto;html=1;exitX=0;exitY=1;exitDx=0;exitDy=0;entryX=0;entryY=0;entryDx=0;entryDy=0;" parent="1" source="UCss4geg_edF1j3ZXJpk-36" target="UCss4geg_edF1j3ZXJpk-42" edge="1">
          <mxGeometry relative="1" as="geometry" />
        </mxCell>
        <mxCell id="UCss4geg_edF1j3ZXJpk-68" value="&lt;font style=&quot;font-size: 14px;&quot;&gt;10&lt;/font&gt;" style="edgeLabel;html=1;align=center;verticalAlign=middle;resizable=0;points=[];" parent="UCss4geg_edF1j3ZXJpk-67" vertex="1" connectable="0">
          <mxGeometry x="-0.3677" y="4" relative="1" as="geometry">
            <mxPoint as="offset" />
          </mxGeometry>
        </mxCell>
        <mxCell id="UCss4geg_edF1j3ZXJpk-36" value="genReposStub" style="ellipse;whiteSpace=wrap;html=1;shadow=0;labelBackgroundColor=none;fillStyle=auto;fontFamily=Helvetica;fontSize=12;gradientDirection=north;" parent="1" vertex="1">
          <mxGeometry x="5" y="-926.5300000000001" width="115" height="70" as="geometry" />
        </mxCell>
        <mxCell id="UCss4geg_edF1j3ZXJpk-39" value="outMessage,&amp;nbsp;&lt;br&gt;inMessage" style="ellipse;whiteSpace=wrap;html=1;shadow=0;labelBackgroundColor=none;fillStyle=auto;fontFamily=Helvetica;fontSize=12;gradientDirection=north;" parent="1" vertex="1">
          <mxGeometry x="332.5" y="-680" width="125" height="60" as="geometry" />
        </mxCell>
        <mxCell id="UCss4geg_edF1j3ZXJpk-41" value="&lt;font style=&quot;font-size: 17px;&quot;&gt;1 -&amp;nbsp; instantiate, start, join&lt;br&gt;2 -&amp;nbsp; instantiate, shutdown&lt;br&gt;3 -&amp;nbsp; instantiate, initAssaultPartyDist, shutdown&lt;br&gt;4 -&amp;nbsp; instantiate, initSimul, setOrdinaryThief_MaxDisp, shutdown&lt;br&gt;5 -&amp;nbsp; instantiate, initInfoMuseum, shutdown&lt;br&gt;6 -&amp;nbsp; amINeeded, prepareExcursion, setRoomStates&lt;br&gt;7 -&amp;nbsp; handACanvas&lt;br&gt;8 -&amp;nbsp; moveFisrtPartyMember, crawlIN, getAssaultP_roomID, reverseDirection, crawlOut, getThiefIndex&lt;br&gt;9 -&amp;nbsp; rollACanvas&lt;br&gt;10 -&amp;nbsp; instantiate, open, close, writeObject, readObject&lt;br&gt;11 -&amp;nbsp; instantiate&lt;br&gt;12 - getMsgType, toString, getMasterState, getMasterTransition,&amp;nbsp;getOrdinaryID,&lt;span style=&quot;border-color: var(--border-color);&quot;&gt;&amp;nbsp;&lt;/span&gt;getOrdinaryTState,&amp;nbsp;getAmINedeed, getAssautlPBuild, getOrdinaryAPID,&amp;nbsp;&lt;span style=&quot;border-color: var(--border-color);&quot;&gt;&lt;/span&gt;getnCanvasCollected,&amp;nbsp;&lt;span style=&quot;border-color: var(--border-color);&quot;&gt;&lt;/span&gt;getAssignAssaultPId,&amp;nbsp;&lt;span style=&quot;border-color: var(--border-color);&quot;&gt;&lt;/span&gt;getAssignRoomId&lt;br style=&quot;border-color: var(--border-color);&quot;&gt;13 - getMsgType, toString, getMasterState, getOrdinaryAPID, getOrdinaryID, getOrdinaryTState, &lt;span style=&quot;&quot;&gt; &lt;/span&gt;getnCanvasCollected, getResetAPArray&lt;br&gt;14 - getMsgType, toString, getOrdinaryID, getOrdinaryAPID, getOrdinaryAPPos, getOrdinaryTState, &lt;span style=&quot;&quot;&gt; &lt;/span&gt;getAssignRoomId, getOrdinaryTAP_index&lt;br&gt;15 - getMsgType, toString, getOrdinaryID, getOrdinaryTState,&amp;nbsp;&amp;nbsp;&lt;br&gt;16 - getMsgType, toString&lt;br&gt;&lt;br&gt;&lt;br style=&quot;border-color: var(--border-color);&quot;&gt;&lt;/font&gt;" style="text;html=1;strokeColor=none;fillColor=none;align=left;verticalAlign=middle;whiteSpace=wrap;rounded=0;" parent="1" vertex="1">
          <mxGeometry x="15" y="-550" width="820" height="471" as="geometry" />
        </mxCell>
        <mxCell id="UCss4geg_edF1j3ZXJpk-78" style="edgeStyle=orthogonalEdgeStyle;rounded=0;orthogonalLoop=1;jettySize=auto;html=1;entryX=0.5;entryY=1;entryDx=0;entryDy=0;" parent="1" source="UCss4geg_edF1j3ZXJpk-42" target="UCss4geg_edF1j3ZXJpk-39" edge="1">
          <mxGeometry relative="1" as="geometry">
            <Array as="points">
              <mxPoint x="60" y="-600" />
              <mxPoint x="395" y="-600" />
            </Array>
          </mxGeometry>
        </mxCell>
        <mxCell id="UCss4geg_edF1j3ZXJpk-79" value="&lt;font style=&quot;font-size: 14px;&quot;&gt;11&lt;/font&gt;" style="edgeLabel;html=1;align=center;verticalAlign=middle;resizable=0;points=[];" parent="UCss4geg_edF1j3ZXJpk-78" vertex="1" connectable="0">
          <mxGeometry x="-0.1516" y="-4" relative="1" as="geometry">
            <mxPoint as="offset" />
          </mxGeometry>
        </mxCell>
        <mxCell id="UCss4geg_edF1j3ZXJpk-42" value="com" style="ellipse;whiteSpace=wrap;html=1;shadow=0;labelBackgroundColor=none;fillStyle=auto;fontFamily=Helvetica;fontSize=12;gradientDirection=north;" parent="1" vertex="1">
          <mxGeometry y="-760" width="120" height="60" as="geometry" />
        </mxCell>
        <mxCell id="UCss4geg_edF1j3ZXJpk-76" style="rounded=0;orthogonalLoop=1;jettySize=auto;html=1;entryX=1;entryY=0.5;entryDx=0;entryDy=0;exitX=0.5;exitY=1;exitDx=0;exitDy=0;" parent="1" source="UCss4geg_edF1j3ZXJpk-43" target="UCss4geg_edF1j3ZXJpk-42" edge="1">
          <mxGeometry relative="1" as="geometry" />
        </mxCell>
        <mxCell id="UCss4geg_edF1j3ZXJpk-77" value="&lt;font style=&quot;font-size: 14px;&quot;&gt;10&lt;/font&gt;" style="edgeLabel;html=1;align=center;verticalAlign=middle;resizable=0;points=[];" parent="UCss4geg_edF1j3ZXJpk-76" vertex="1" connectable="0">
          <mxGeometry x="0.3021" y="-3" relative="1" as="geometry">
            <mxPoint as="offset" />
          </mxGeometry>
        </mxCell>
        <mxCell id="UCss4geg_edF1j3ZXJpk-84" style="edgeStyle=orthogonalEdgeStyle;rounded=0;orthogonalLoop=1;jettySize=auto;html=1;entryX=1;entryY=1;entryDx=0;entryDy=0;" parent="1" source="UCss4geg_edF1j3ZXJpk-43" target="UCss4geg_edF1j3ZXJpk-39" edge="1">
          <mxGeometry relative="1" as="geometry">
            <Array as="points">
              <mxPoint x="710" y="-630" />
              <mxPoint x="439" y="-630" />
            </Array>
          </mxGeometry>
        </mxCell>
        <mxCell id="UCss4geg_edF1j3ZXJpk-85" value="&lt;font style=&quot;font-size: 14px;&quot;&gt;15&lt;/font&gt;" style="edgeLabel;html=1;align=center;verticalAlign=middle;resizable=0;points=[];" parent="UCss4geg_edF1j3ZXJpk-84" vertex="1" connectable="0">
          <mxGeometry x="0.6373" y="1" relative="1" as="geometry">
            <mxPoint as="offset" />
          </mxGeometry>
        </mxCell>
        <mxCell id="UCss4geg_edF1j3ZXJpk-43" value="museumStub" style="ellipse;whiteSpace=wrap;html=1;shadow=0;labelBackgroundColor=none;fillStyle=auto;fontFamily=Helvetica;fontSize=12;gradientDirection=north;" parent="1" vertex="1">
          <mxGeometry x="627.5" y="-924.35" width="120" height="65.63" as="geometry" />
        </mxCell>
      </root>
    </mxGraphModel>
  </diagram>
</mxfile>
